<?xml version="1.0" encoding="utf-8"?>
<!-- Generator: Adobe Illustrator 25.0.0, SVG Export Plug-In . SVG Version: 6.00 Build 0)  -->
<svg version="1.1" id="Layer_1" xmlns="http://www.w3.org/2000/svg" xmlns:xlink="http://www.w3.org/1999/xlink" x="0px" y="0px"
	 viewBox="0 0 3356.4443359 1383.111084" style="enable-background:new 0 0 3356.4443359 1383.111084;" xml:space="preserve">
<style type="text/css">
	.st0{font-family:'Georgia';}
	.st1{font-size:854.0313721px;}
	.st2{fill:#0342A6;}
	.st3{font-size:201.0254364px;}
</style>
<g>
	<text transform="matrix(1.0514801 0 0 1 370.2897034 963.225708)" class="st0 st1">CSM</text>
	<text transform="matrix(1.0031199 0 0 1 413.1609802 1183.4890137)" class="st2 st0 st3">Community Science Museum</text>
	<rect x="2712.6564941" y="720.5761108" width="25.7846699" height="46.5787582"/>
	<rect x="2712.6564941" y="429.4588928" width="25.7846699" height="46.5787582"/>
	<rect x="2558.7802734" y="576.6810303" width="46.5787582" height="25.7846699"/>
	<rect x="2839.0847168" y="576.6810303" width="46.5787582" height="25.7846699"/>
	
		<rect x="2811.1689453" y="666.2371826" transform="matrix(0.7071068 -0.7071068 0.7071068 0.7071068 339.2141418 2197.9821777)" width="23.2745552" height="46.5723724"/>
	
		<rect x="2613.682373" y="468.7510071" transform="matrix(0.7071068 -0.7071068 0.7071068 0.7071068 421.0155029 2000.4957275)" width="23.2745552" height="46.5723724"/>
	
		<rect x="2602.0812988" y="677.8804321" transform="matrix(0.7071068 -0.7071068 0.7071068 0.7071068 281.3896484 2058.3701172)" width="46.5723724" height="23.2745552"/>
	
		<rect x="2799.5559082" y="480.3997803" transform="matrix(0.7071068 -0.7071068 0.7071068 0.7071068 478.8685303 2140.1650391)" width="46.5723724" height="23.2745552"/>
	<path d="M2872.3151855,986.6842041c-42.1274414,0-89.7475586-16.1177979-139.5556641-47.8820801
		c-77.7900391-49.6043091-152.3798828-131.9156494-210.0258789-231.7644653
		c-57.645752-99.8488159-91.6328125-205.5919495-95.6999512-297.7658691
		c-4.1835938-94.8912354,23.8217773-164.645752,78.8608398-196.427475s129.4602051-21.1509399,209.5427246,29.9139252
		c77.7900391,49.6043701,152.380127,131.9156189,210.0258789,231.7644348s91.6328125,205.5920105,95.6999512,297.7658386
		c4.1835938,94.8912964-23.8273926,164.645813-78.8664551,196.4216919
		C2921.494873,980.7258301,2897.9116211,986.6842041,2872.3151855,986.6842041z M2576.015625,218.151001
		c-21.5932617,0-41.277832,4.9168091-58.4838867,14.8493195c-47.154541,27.2198639-71.0344238,89.4566193-67.2524414,175.2416534
		c3.9042969,88.5023499,36.791748,190.4866028,92.6103516,287.1583557
		c55.8129883,96.671814,127.6796875,176.1376953,202.3742676,223.7753296
		c72.4020996,46.1713257,138.2348633,56.5985107,185.3894043,29.3844604
		c47.1547852-27.2198486,71.034668-89.456604,67.2524414-175.2416992
		c-3.9042969-88.5023804-36.7915039-190.4865723-92.6103516-287.1583557
		c-55.8127441-96.6717834-127.6794434-176.1376953-202.3742676-223.7753601
		C2656.9360352,233.0584717,2613.5983887,218.1509705,2576.015625,218.151001z"/>
	<path d="M2575.9106445,986.6842041c-25.6020508,0-49.173584-5.9525146-69.9812012-17.9681396
		c-55.0390625-31.7758789-83.0444336-101.5361938-78.8666992-196.4216919
		c4.0671387-92.1739502,38.0541992-197.9228516,95.6999512-297.7658386
		c57.6459961-99.8429565,132.2358398-182.1542358,210.0258789-231.7644348
		c80.0769043-51.0590515,154.5036621-61.7014465,209.5427246-29.9139099
		c55.0390625,31.7758942,83.0444336,101.5362244,78.8666992,196.4216919
		c-4.0673828,92.1739807-38.0541992,197.9228821-95.7001953,297.7658386
		c-57.645752,99.8430176-132.2355957,182.1542969-210.0256348,231.7645264
		c-49.8081055,31.7584839-97.4282227,47.882019-139.5615234,47.882019V986.6842041z M2872.2102051,218.151001
		c-37.5827637,0-80.9147949,14.9074707-126.911377,44.2337036
		c-74.6945801,47.6376648-146.5612793,127.1035767-202.3742676,223.7753601
		c-55.8188477,96.6717834-88.7060547,198.650238-92.6103516,287.1583557
		c-3.7822266,85.7850342,20.0979004,148.0217896,67.2524414,175.2416992
		c47.1430664,27.2140503,112.9816895,16.7868652,185.3894043-29.3844604
		c74.6945801-47.6376343,146.5612793-127.1035156,202.3742676-223.7753906
		c55.8186035-96.6717529,88.7058105-198.650238,92.6103516-287.1583862
		c3.7819824-85.7850037-20.0979004-148.021759-67.2524414-175.2416534
		c-17.1943359-9.9266968-36.890625-14.8493195-58.4780273-14.8493195V218.151001z"/>
	<path d="M2724.1130371,823.2953491c-115.291748,0-223.8686523-23.4436035-305.7202148-66.0072632
		c-84.2722168-43.8206177-130.6818848-102.9559937-130.6818848-166.5077515s46.409668-122.6871643,130.6818848-166.5077515
		c81.8515625-42.5637512,190.4284668-66.0072632,305.7202148-66.0072632
		c115.2915039,0,223.8684082,23.443512,305.7199707,66.0072632
		c84.2722168,43.8205872,130.6821289,102.9559937,130.6821289,166.5077515s-46.4099121,122.6871948-130.6821289,166.5077515
		C2947.9814453,799.8518677,2839.404541,823.2953491,2724.1130371,823.2953491z M2724.1130371,381.5400391
		c-227.7961426,0-413.1274414,93.8613586-413.1274414,209.2402344s185.3312988,209.2401733,413.1274414,209.2401733
		c227.7958984,0,413.1271973-93.8613281,413.1271973-209.2402344s-185.3312988-209.2402649-413.1271973-209.2402649V381.5400391z"/>
	<circle class="st2" cx="2724.0925293" cy="590.7802734" r="87.2804184"/>
	<path d="M2724.1130371,689.6980591c-54.5446777,0-98.9179688-44.3734131-98.9179688-98.9177856
		c0-54.5444336,44.373291-98.9178162,98.9179688-98.9178162c54.5441895,0,98.9177246,44.3733215,98.9177246,98.9178162
		C2823.0307617,645.324646,2778.6572266,689.6980591,2724.1130371,689.6980591z M2724.1130371,515.137207
		c-41.7084961,0-75.6430664,33.9346313-75.6430664,75.6430664c0,41.708374,33.9345703,75.6430054,75.6430664,75.6430054
		c41.708252,0,75.6428223-33.9346313,75.6428223-75.6430054
		C2799.7558594,549.0718384,2765.8212891,515.137207,2724.1130371,515.137207z"/>
</g>
</svg>
