<?xml version="1.0" encoding="utf-8"?>
<!-- Generator: Adobe Illustrator 25.0.0, SVG Export Plug-In . SVG Version: 6.00 Build 0)  -->
<svg version="1.1" id="Layer_1" xmlns="http://www.w3.org/2000/svg" xmlns:xlink="http://www.w3.org/1999/xlink" x="0px" y="0px"
	 viewBox="0 0 1760 702.222" style="enable-background:new 0 0 1760 702.222;" xml:space="preserve">
<style type="text/css">
	.st0{font-family:'Georgia';}
	.st1{font-size:470.9432px;}
	.st2{fill:#0342A6;}
	.st3{font-size:114.3566px;}
</style>
<g>
	<text transform="matrix(1.0515 0 0 1 117.19 490.7674)" class="st0 st1">CSM</text>
	<text transform="matrix(1.0031 0 0 1 156.8357 642.4016)" class="st2 st0 st3">Community Science Museum</text>
	<rect x="1427.619" y="384.212" width="15.162" height="27.481"/>
	<rect x="1427.619" y="211.746" width="15.162" height="27.481"/>
	<rect x="1336.648" y="298.927" width="27.481" height="15.162"/>
	<rect x="1502.48" y="298.927" width="27.481" height="15.162"/>
	
		<rect x="1485.888" y="351.916" transform="matrix(0.7071 -0.7071 0.7071 0.7071 178.628 1162.6721)" width="13.79" height="27.594"/>
	
		<rect x="1368.877" y="234.905" transform="matrix(0.7071 -0.7071 0.7071 0.7071 227.0954 1045.6611)" width="13.79" height="27.594"/>
	
		<rect x="1362.004" y="358.815" transform="matrix(0.7071 -0.7071 0.7071 0.7071 144.3669 1079.9518)" width="27.594" height="13.79"/>
	
		<rect x="1479.008" y="241.807" transform="matrix(0.7071 -0.7071 0.7071 0.7071 261.3734 1128.4154)" width="27.594" height="13.79"/>
	<path d="M1522.117,541.781c-24.96,0-53.176-9.55-82.687-28.37c-46.091-29.391-90.285-78.16-124.441-137.321
		c-34.155-59.161-54.293-121.813-56.702-176.427c-2.479-56.223,14.114-97.553,46.725-116.384s76.705-12.532,124.154,17.724
		c46.091,29.391,90.285,78.16,124.44,137.321c34.155,59.161,54.293,121.814,56.703,176.427
		c2.479,56.223-14.118,97.553-46.729,116.38C1551.256,538.251,1537.283,541.781,1522.117,541.781z M1346.56,86.424
		c-12.794,0-24.457,2.913-34.652,8.798c-27.939,16.128-42.088,53.003-39.847,103.831c2.313,52.438,21.799,112.864,54.872,170.142
		c33.069,57.278,75.65,104.362,119.907,132.587c42.898,27.357,81.904,33.535,109.844,17.41
		c27.939-16.128,42.088-53.003,39.847-103.831c-2.313-52.438-21.799-112.864-54.872-170.142
		c-33.069-57.278-75.65-104.362-119.907-132.587C1394.505,95.257,1368.828,86.424,1346.56,86.424z"/>
	<path d="M1346.498,541.781c-15.169,0-29.136-3.527-41.464-10.646c-32.611-18.827-49.204-60.16-46.729-116.38
		c2.41-54.613,22.547-117.27,56.703-176.427c34.155-59.157,78.35-107.927,124.441-137.321
		c47.446-30.253,91.544-36.558,124.154-17.724c32.611,18.827,49.204,60.16,46.729,116.38c-2.41,54.613-22.547,117.27-56.703,176.427
		c-34.155,59.157-78.35,107.927-124.441,137.321C1399.677,532.228,1371.461,541.781,1346.498,541.781L1346.498,541.781z
		 M1522.055,86.424c-22.268,0-47.942,8.833-75.195,26.209c-44.257,28.225-86.838,75.309-119.907,132.587
		c-33.073,57.278-52.558,117.701-54.872,170.142c-2.241,50.828,11.908,87.703,39.847,103.831
		c27.932,16.124,66.942,9.946,109.844-17.41c44.257-28.225,86.838-75.309,119.907-132.587
		c33.073-57.278,52.558-117.701,54.872-170.142c2.241-50.828-11.908-87.703-39.847-103.831
		C1546.516,89.341,1534.846,86.424,1522.055,86.424L1522.055,86.424z"/>
	<path d="M1434.307,444.973c-68.31,0-132.642-13.89-181.14-39.109c-49.931-25.964-77.429-61.002-77.429-98.656
		s27.498-72.692,77.429-98.656c48.497-25.219,112.829-39.109,181.14-39.109s132.642,13.89,181.14,39.109
		c49.931,25.964,77.429,61.002,77.429,98.656s-27.498,72.692-77.429,98.656C1566.95,431.083,1502.618,444.973,1434.307,444.973z
		 M1434.307,183.232c-134.969,0-244.778,55.613-244.778,123.975s109.809,123.975,244.778,123.975s244.778-55.613,244.778-123.975
		S1569.277,183.232,1434.307,183.232L1434.307,183.232z"/>
	<circle class="st2" cx="1434.295" cy="307.208" r="51.714"/>
	<path d="M1434.307,365.816c-32.318,0-58.609-26.291-58.609-58.609s26.291-58.609,58.609-58.609s58.609,26.291,58.609,58.609
		S1466.625,365.816,1434.307,365.816z M1434.307,262.389c-24.712,0-44.819,20.106-44.819,44.819s20.106,44.819,44.819,44.819
		s44.819-20.106,44.819-44.819S1459.02,262.389,1434.307,262.389z"/>
</g>
</svg>
